<svg id="Layer_1" data-name="Layer 1" xmlns="http://www.w3.org/2000/svg" viewBox="0 0 500 500"><defs><style>.cls-1{fill:#fff;}</style></defs><path class="cls-1" d="M114.71,239.19a5.16,5.16,0,0,1-6.86,4.85,48.36,48.36,0,0,0-15.47-2.31q-17.37,0-27.79,14.14t-10.42,38v79.55A5.15,5.15,0,0,1,49,378.54H13.15A5.14,5.14,0,0,1,8,373.39V209.82a5.15,5.15,0,0,1,5.14-5.15H49a5.16,5.16,0,0,1,5.15,5.15v28.27h.49q12.74-36.39,45.83-36.4a46.11,46.11,0,0,1,10.2,1,5.16,5.16,0,0,1,4,5Z"/><path class="cls-1" d="M138.2,147.43a23.38,23.38,0,0,1,7.53-17.7q7.53-7.11,19.44-7.11,11.58,0,19.35,7a23,23,0,0,1,7.78,17.78,23.34,23.34,0,0,1-7.69,17.87q-7.7,7.11-19.44,7.11t-19.36-7.28A23.58,23.58,0,0,1,138.2,147.43Zm3.64,226V209.82a5.16,5.16,0,0,1,5.15-5.15h35.7a5.15,5.15,0,0,1,5.14,5.15V373.39a5.14,5.14,0,0,1-5.14,5.15H147A5.15,5.15,0,0,1,141.84,373.39Z"/><path class="cls-1" d="M340.85,150.07a5.13,5.13,0,0,1-6.53,4.94,46.85,46.85,0,0,0-12.82-1.79q-26.81,0-26.8,30.61v15.7a5.14,5.14,0,0,0,5.14,5.14h29.58a5.16,5.16,0,0,1,5.15,5.15V234.6a5.15,5.15,0,0,1-5.15,5.14H299.84a5.15,5.15,0,0,0-5.14,5.15v128.5a5.14,5.14,0,0,1-5.15,5.15h-35.7a5.14,5.14,0,0,1-5.14-5.15V244.89a5.15,5.15,0,0,0-5.14-5.15H224.41a5.15,5.15,0,0,1-5.15-5.14V209.82a5.16,5.16,0,0,1,5.15-5.15h19.16a5.14,5.14,0,0,0,5.14-5.14V181.35q0-29.28,18.36-46.65t48.64-17.37a94.18,94.18,0,0,1,21.23,2,5.13,5.13,0,0,1,3.91,5Z"/><path class="cls-1" d="M377,349.77a5.16,5.16,0,0,1,7-4.79,31.19,31.19,0,0,0,10.55,1.8q22.67,0,22.67-28.79v-73.1a5.16,5.16,0,0,0-5.15-5.15H382.16A5.14,5.14,0,0,1,377,234.6V209.82a5.15,5.15,0,0,1,5.14-5.15h29.91a5.15,5.15,0,0,0,5.15-5.14V159.25a5.14,5.14,0,0,1,6.58-4.93l35.7,10.4a5.13,5.13,0,0,1,3.7,4.94v29.87a5.15,5.15,0,0,0,5.15,5.14h18.5a5.15,5.15,0,0,1,5.14,5.15V234.6a5.14,5.14,0,0,1-5.14,5.14h-18.5a5.16,5.16,0,0,0-5.15,5.15V326.1q0,56.58-53.43,56.57-18.19,0-29.44-4.46A5.19,5.19,0,0,1,377,373.4Z"/><rect class="cls-1" x="342.88" y="271.87" width="16.94" height="33.88" rx="3.1"/><rect class="cls-1" x="378.12" y="271.87" width="16.94" height="33.88" rx="3.1"/></svg>