<svg id="Layer_1" data-name="Layer 1" xmlns="http://www.w3.org/2000/svg" viewBox="0 0 500 500"><path d="M135.25,240.83a4.37,4.37,0,0,1-5.82,4.11,41.15,41.15,0,0,0-13.12-2q-14.73,0-23.57,12t-8.84,32.2v67.48A4.37,4.37,0,0,1,79.53,359H49.11a4.36,4.36,0,0,1-4.36-4.36V215.92a4.37,4.37,0,0,1,4.36-4.37H79.53a4.37,4.37,0,0,1,4.37,4.37v24h.42Q95.12,209,123.18,209a39.32,39.32,0,0,1,8.66.81,4.38,4.38,0,0,1,3.41,4.26Z"/><path d="M155.18,163a19.8,19.8,0,0,1,6.38-15q6.38-6,16.49-6a23.57,23.57,0,0,1,16.41,6,19.46,19.46,0,0,1,6.6,15.08,19.77,19.77,0,0,1-6.53,15.16q-6.53,6-16.48,6T161.63,178A20,20,0,0,1,155.18,163Zm3.08,191.66V215.92a4.37,4.37,0,0,1,4.37-4.37h30.28a4.37,4.37,0,0,1,4.36,4.37V354.66a4.36,4.36,0,0,1-4.36,4.36H162.63A4.37,4.37,0,0,1,158.26,354.66Z"/><path d="M327.06,165.24a4.35,4.35,0,0,1-5.54,4.19,39.69,39.69,0,0,0-10.88-1.51q-22.72,0-22.73,26v13.32a4.37,4.37,0,0,0,4.37,4.36h25.09a4.37,4.37,0,0,1,4.36,4.37v21a4.36,4.36,0,0,1-4.36,4.36H292.28a4.37,4.37,0,0,0-4.37,4.36v109a4.36,4.36,0,0,1-4.36,4.36H253.27a4.36,4.36,0,0,1-4.36-4.36v-109a4.37,4.37,0,0,0-4.37-4.36H228.29a4.36,4.36,0,0,1-4.36-4.36v-21a4.37,4.37,0,0,1,4.36-4.37h16.25a4.37,4.37,0,0,0,4.37-4.36V191.77q0-24.84,15.57-39.57t41.25-14.73a78.94,78.94,0,0,1,18,1.73,4.34,4.34,0,0,1,3.32,4.24Z"/><path d="M357.73,334.63a4.39,4.39,0,0,1,5.93-4.07,26.38,26.38,0,0,0,8.95,1.52q19.22,0,19.22-24.41v-62a4.36,4.36,0,0,0-4.36-4.36H362.1a4.37,4.37,0,0,1-4.37-4.36v-21a4.37,4.37,0,0,1,4.37-4.37h25.37a4.36,4.36,0,0,0,4.36-4.36V173a4.36,4.36,0,0,1,5.58-4.19l30.28,8.82a4.37,4.37,0,0,1,3.15,4.19v25.34a4.36,4.36,0,0,0,4.36,4.36h15.69a4.37,4.37,0,0,1,4.36,4.37v21a4.36,4.36,0,0,1-4.36,4.36H435.2a4.36,4.36,0,0,0-4.36,4.36v68.88q0,48-45.32,48-15.43,0-25-3.79a4.41,4.41,0,0,1-2.81-4.08Z"/><rect x="328.78" y="268.55" width="14.37" height="28.73" rx="3.1"/><rect x="358.67" y="268.55" width="14.37" height="28.73" rx="3.1"/></svg>